# xmcd
#
# Track frame offsets: 
#        150
#        28928
#        49286
#        68182
#        96076
#        114409
#        134303
#        144827
#
# Disc length: 2215 seconds
#
# Revision: 0
# Processed by: cddbd v1.5.2PL0 Copyright (c) Steve Scherf et al.
# Submitted via: ExactAudioCopy v1.0b1
#
DISCID=6e08a508
DTITLE=No Charts feat. Christian Hartwig - 'Round Midnight
DYEAR=1996
DGENRE=Instrumental
TTITLE0=Blues With Pink Notes
TTITLE1=Little Wing
TTITLE2=Sensitive Kind
TTITLE3='Round Midnight
TTITLE4=My Funny Valentine
TTITLE5=Kirsten, This Is For You
TTITLE6=Warm Up
TTITLE7=Sunny
EXTD=
EXTT0=
EXTT1=
EXTT2=
EXTT3=
EXTT4=
EXTT5=
EXTT6=
EXTT7=
PLAYORDER=
